<?xml version="1.0" encoding="UTF-8"?>
<svg width="320px" height="320px" viewBox="0 0 320 320" version="1.1" xmlns="http://www.w3.org/2000/svg" xmlns:xlink="http://www.w3.org/1999/xlink">
    <!-- Generator: Sketch 42 (36781) - http://www.bohemiancoding.com/sketch -->
    <title>git-orange-light-backgroun-stacked</title>
    <desc>Created with Sketch.</desc>
    <defs></defs>
    <g id="git.com" stroke="none" stroke-width="1" fill="none" fill-rule="evenodd">
        <g id="git-orange-light-backgroun-stacked" fill="#E15B39">
            <path d="M197.657435,67.6562354 L224,93.9988 L160.0012,158 L144.0003,141.9991 L144.0003,121.313371 L197.657435,67.6562354 Z M127.9994,61.9994 L127.9994,126.0006 L96,93.9988 L127.9994,61.9994 Z M186.343765,56.3425646 L144.0003,98.6860293 L144.0003,45.9985 L160.0012,30 L186.343765,56.3425646 Z" id="Page-1"></path>
            <path d="M71.6,289.072 L69.936,272.816 C96.688,270.512 99.76,269.616 100.144,255.152 C96.304,257.84 91.44,259.76 85.296,259.76 C72.112,259.76 62,249.52 62,233.392 C62,213.168 77.872,199.856 97.712,199.856 C104.368,199.856 111.28,201.008 117.936,203.056 C118.192,212.272 118.32,232.624 118.32,246.32 C118.32,271.152 109.616,287.152 71.6,289.072 Z M92.464,245.808 C95.024,245.808 97.584,245.424 100.144,244.528 L100.144,216.496 C96.944,215.6 94,215.088 91.056,215.088 C84.016,215.088 79.92,219.696 79.92,229.168 C79.92,240.688 85.552,245.808 92.464,245.808 Z M174,192.56 L175.152,174 L156.08,174 L154.928,192.56 L174,192.56 Z M193.456,266.288 L194.992,252.72 L174.128,252.72 L174.128,201.52 L135.856,201.52 L134.448,214.448 L155.824,215.472 L155.824,252.72 L134.96,252.72 L134.96,266.288 L193.456,266.288 Z M256.816,267.184 L258.736,252.336 C240.944,251.952 234.928,250.16 234.928,241.072 L234.928,215.216 L257.456,215.216 L257.456,201.52 L234.928,201.52 L234.928,182.96 L216.88,184.624 L216.88,201.52 L205.36,201.52 L203.824,215.216 L216.88,215.216 L216.88,243.888 C216.88,261.168 226.48,267.952 256.816,267.184 Z" id="git"></path>
        </g>
    </g>
</svg>